HIERARCHY
ROOT joint_Root
{
	OFFSET 0.0 0.0 0.0
	CHANNELS 6 Xposition Yposition Zposition Zrotation Xrotation Yrotation 
	JOINT Hips
	{
		OFFSET -17.1583 93.1646 452.98
		CHANNELS 6 Xposition Yposition Zposition Zrotation Xrotation Yrotation 
		JOINT Spine
		{
			OFFSET 15.7357 0.0 0.0
			CHANNELS 6 Xposition Yposition Zposition Zrotation Xrotation Yrotation 
			JOINT Chest
			{
				OFFSET 8.98455 -0.406207 0.0
				CHANNELS 6 Xposition Yposition Zposition Zrotation Xrotation Yrotation 
				JOINT Neck
				{
					OFFSET 16.3773 0.0 0.0
					CHANNELS 6 Xposition Yposition Zposition Zrotation Xrotation Yrotation 
					JOINT Head
					{
						OFFSET 6.45672 0.0 0.0
						CHANNELS 6 Xposition Yposition Zposition Zrotation Xrotation Yrotation 
						End Site
						{
							OFFSET 0.0 0.0 0.0
						}
					}
				}
				JOINT Shoulder_L
				{
					OFFSET 12.9942 -0.242716 4.98039
					CHANNELS 6 Xposition Yposition Zposition Zrotation Xrotation Yrotation 
					JOINT UpperArm_L
					{
						OFFSET 5.34809 0.0 0.0
						CHANNELS 6 Xposition Yposition Zposition Zrotation Xrotation Yrotation 
						JOINT LowerArm_L
						{
							OFFSET 24.3286 1.87007e-05 0.0
							CHANNELS 6 Xposition Yposition Zposition Zrotation Xrotation Yrotation 
							JOINT Hand_L
							{
								OFFSET 22.2916 0.0 0.0
								CHANNELS 6 Xposition Yposition Zposition Zrotation Xrotation Yrotation 
								End Site
								{
									OFFSET 0.0 0.0 0.0
								}
							}
						}
					}
				}
				JOINT Shoulder_R
				{
					OFFSET 12.9945 -0.242716 -4.98039
					CHANNELS 6 Xposition Yposition Zposition Zrotation Xrotation Yrotation 
					JOINT UpperArm_R
					{
						OFFSET -5.34813 0.0 0.0
						CHANNELS 6 Xposition Yposition Zposition Zrotation Xrotation Yrotation 
						JOINT LowerArm_R
						{
							OFFSET -24.3289 0.000322201 0.0
							CHANNELS 6 Xposition Yposition Zposition Zrotation Xrotation Yrotation 
							JOINT Hand_R
							{
								OFFSET -22.2915 -0.000108084 0.0
								CHANNELS 6 Xposition Yposition Zposition Zrotation Xrotation Yrotation 
								End Site
								{
									OFFSET 0.0 0.0 0.0
								}
							}
						}
					}
				}
			}
		}
		JOINT UpperLeg_L
		{
			OFFSET -2.19248 -6.46944 0.0
			CHANNELS 6 Xposition Yposition Zposition Zrotation Xrotation Yrotation 
			JOINT LowerLeg_L
			{
				OFFSET 39.0811 0.0 -1.23785e-05
				CHANNELS 6 Xposition Yposition Zposition Zrotation Xrotation Yrotation 
				JOINT Foot_L
				{
					OFFSET 40.9854 0.0 -1.26872e-05
					CHANNELS 6 Xposition Yposition Zposition Zrotation Xrotation Yrotation 
					JOINT Toes_L
					{
						OFFSET 11.7543 0.0 0.0
						CHANNELS 6 Xposition Yposition Zposition Zrotation Xrotation Yrotation 
						End Site
						{
							OFFSET 0.0 0.0 0.0
						}
					}
				}
			}
		}
		JOINT UpperLeg_R
		{
			OFFSET -2.19251 6.46944 0.0
			CHANNELS 6 Xposition Yposition Zposition Zrotation Xrotation Yrotation 
			JOINT LowerLeg_R
			{
				OFFSET -39.0811 -0.00228153 -0.0401928
				CHANNELS 6 Xposition Yposition Zposition Zrotation Xrotation Yrotation 
				JOINT Foot_R
				{
					OFFSET -40.9854 0.0 0.0
					CHANNELS 6 Xposition Yposition Zposition Zrotation Xrotation Yrotation 
					JOINT Toes_R
					{
						OFFSET -11.7543 0.0 0.0
						CHANNELS 6 Xposition Yposition Zposition Zrotation Xrotation Yrotation 
						End Site
						{
							OFFSET 0.0 0.0 0.0
						}
					}
				}
			}
		}
	}
}
MOTION
Frames:	4
Frame Time:	0.0333333
0.000000 0.000000 0.000000 0.000000 0.000000 -0.000000 -0.979554 92.697600 0.222916 87.747100 4.755240 2.439690 15.735700 0.000005 -0.000001 58.950700 87.284300 -57.208100 8.984550 -0.406207 -0.000000 -3.067240 -2.964810 3.407150 16.377300 -0.000001 -0.000001 6.478590 1.214680 -1.835210 6.456720 -0.000001 -0.000000 5.164970 0.872337 -1.940490 12.994200 -0.242716 4.980390 -92.547000 7.569420 -71.340700 5.348090 -0.000007 -0.000001 -74.548200 27.764200 1.363210 24.328600 0.000019 0.000005 12.810300 29.118700 -25.045300 22.291600 -0.000001 0.000005 -3.338310 5.032700 6.616100 12.994500 -0.242716 -4.980390 88.609400 4.077890 -71.152100 -5.348130 -0.000001 -0.000004 -73.408300 11.752300 -2.157820 -24.328900 0.000322 -0.000009 2.686690 6.922160 -21.281500 -22.291500 -0.000108 -0.000004 6.682840 5.282920 0.546270 -2.192480 -6.469440 -0.000000 -176.820000 4.911210 -1.720710 39.081100 -0.000007 -0.000012 0.211358 -0.563924 20.546300 40.985400 -0.000006 -0.000013 2.740300 11.121900 -72.722600 11.754300 -0.000000 0.000003 0.000502 0.158689 -10.140900 -2.192510 6.469440 -0.000001 -176.081000 8.607650 -176.677000 -39.081100 -0.002282 -0.040193 0.036467 -0.137465 13.551900 -40.985400 0.000008 0.000006 -0.609786 0.617764 -70.183700 -11.754300 -0.000006 -0.000006 -0.008300 0.258132 -6.089450
0.000000 0.000000 0.000000 0.000000 0.000000 -0.000000 -1.004290 92.701300 0.187723 87.722500 4.697310 2.429580 15.735700 0.000005 -0.000001 58.883200 87.276500 -57.143100 8.984550 -0.406207 -0.000000 -3.057040 -2.977970 3.401890 16.377300 -0.000001 -0.000001 6.459390 1.193090 -1.803290 6.456720 -0.000001 -0.000000 5.010800 0.861476 -1.861020 12.994200 -0.242716 4.980390 -92.547100 7.559910 -71.318500 5.348090 -0.000007 -0.000001 -74.493600 27.827500 1.299820 24.328600 0.000019 0.000005 12.786700 29.060900 -25.043200 22.291600 -0.000001 0.000005 -3.287080 5.031380 6.644800 12.994500 -0.242716 -4.980390 88.606400 4.085610 -71.147900 -5.348130 -0.000001 -0.000004 -73.224300 11.414600 -2.193180 -24.328900 0.000322 -0.000009 2.737150 6.843570 -21.869100 -22.291500 -0.000108 -0.000004 6.725420 5.281660 0.580883 -2.192480 -6.469440 -0.000000 -176.785000 4.886380 -1.756000 39.081100 -0.000007 -0.000012 0.210047 -0.560363 20.548500 40.985400 -0.000006 -0.000013 2.717520 11.081000 -72.642100 11.754300 -0.000000 0.000003 0.000759 0.153676 -10.344400 -2.192510 6.469440 -0.000001 -176.037000 8.559930 -176.721000 -39.081100 -0.002282 -0.040193 0.036543 -0.137673 13.562300 -40.985400 0.000008 0.000006 -0.648168 0.618321 -70.181800 -11.754300 -0.000006 -0.000006 -0.008622 0.260700 -5.984540
0.000000 0.000000 0.000000 0.000000 0.000000 -0.000000 -1.028810 92.714100 0.144776 87.692400 4.628760 2.383340 15.735700 0.000005 -0.000001 58.911600 87.280100 -57.170200 8.984550 -0.406207 -0.000000 -3.061840 -2.972160 3.404510 16.377300 -0.000001 -0.000001 6.360840 1.178850 -1.746600 6.456720 -0.000001 -0.000000 4.895330 0.848205 -1.806530 12.994200 -0.242716 4.980390 -92.538700 7.527520 -71.301800 5.348090 -0.000007 -0.000001 -74.471800 27.824300 1.210680 24.328600 0.000019 0.000005 12.824000 29.122800 -25.066600 22.291600 -0.000001 0.000005 -3.326170 5.030090 6.672930 12.994500 -0.242716 -4.980390 88.607900 4.075210 -71.121600 -5.348130 -0.000001 -0.000004 -73.017700 11.052400 -2.240480 -24.328900 0.000322 -0.000009 2.801530 6.743720 -22.630200 -22.291500 -0.000108 -0.000004 6.765580 5.278950 0.655001 -2.192480 -6.469440 -0.000000 -176.732000 4.822130 -1.811030 39.081100 -0.000007 -0.000012 0.212293 -0.567075 20.524500 40.985400 -0.000006 -0.000013 2.690790 11.090000 -72.690600 11.754300 -0.000000 0.000003 0.000431 0.160024 -10.086700 -2.192510 6.469440 -0.000001 -175.983000 8.399310 -176.781000 -39.081100 -0.002282 -0.040193 0.034472 -0.129701 13.500300 -40.985400 0.000008 0.000006 -0.742278 0.605699 -70.080600 -11.754300 -0.000006 -0.000006 -0.008455 0.259372 -6.038780
0.000000 0.000000 0.000000 0.000000 0.000000 -0.000000 -1.070680 92.719500 0.083604 87.681600 4.602750 2.364270 15.735700 0.000005 -0.000001 58.646400 87.271500 -56.904800 8.984550 -0.406207 -0.000000 -3.059750 -3.002630 3.404160 16.377300 -0.000001 -0.000001 6.281900 1.163660 -1.699300 6.456720 -0.000001 -0.000000 4.733890 0.831302 -1.770340 12.994200 -0.242716 4.980390 -92.536500 7.537560 -71.339800 5.348090 -0.000007 -0.000001 -74.436900 27.804000 1.203720 24.328600 0.000019 0.000005 12.814600 29.016100 -25.123600 22.291600 -0.000001 0.000005 -3.370970 5.029460 6.686520 12.994500 -0.242716 -4.980390 88.613600 4.063710 -71.144100 -5.348130 -0.000001 -0.000004 -72.761200 10.593800 -2.283520 -24.328900 0.000322 -0.000009 2.923150 6.717270 -23.591300 -22.291500 -0.000108 -0.000004 6.698170 5.277670 0.689822 -2.192480 -6.469440 -0.000000 -176.693000 4.824040 -1.874160 39.081100 -0.000007 -0.000012 0.210929 -0.563554 20.520500 40.985400 -0.000006 -0.000013 2.654910 11.082600 -72.586100 11.754300 -0.000000 0.000003 0.000723 0.154404 -10.314800 -2.192510 6.469440 -0.000001 -175.923000 8.355200 -176.824000 -39.081100 -0.002282 -0.040193 0.034583 -0.130623 13.454300 -40.985400 0.000008 0.000006 -0.603714 0.542022 -70.020200 -11.754300 -0.000006 -0.000006 -0.008507 0.259789 -6.021730
